<?xml version="1.0" encoding="UTF-8"?> <svg xmlns="http://www.w3.org/2000/svg" width="50.2" height="49.9" viewBox="0 0 50.2 49.9"><g transform="translate(-1573 -7555)"><path d="M14.1,0H8.4A8.27,8.27,0,0,0,0,8.5V41.4a8.263,8.263,0,0,0,8.4,8.5h5.8V41.5H8.3V8.4h5.9L14.1,0Z" transform="translate(1573 7555)" fill="#193153"></path><path d="M36,0h5.8a8.27,8.27,0,0,1,8.4,8.5V41.4a8.263,8.263,0,0,1-8.4,8.5H36V41.5h5.9V8.4H36V0Z" transform="translate(1573 7555)" fill="#193153"></path><path d="M20.9,0V19.2h8.3V0Z" transform="translate(1573 7555)" fill="#193153"></path><path d="M20.9,30.7V49.9h8.3V30.7Z" transform="translate(1573 7555)" fill="#193153"></path></g></svg> 