<?xml version="1.0" encoding="UTF-8"?> <svg xmlns="http://www.w3.org/2000/svg" width="150" height="150" viewBox="0 0 150 150"><g id="FamilyPass_Icon" data-name="FamilyPass Icon" transform="translate(-0.349)"><g id="FamilyPass_Icon-2" data-name="FamilyPass Icon"><circle id="Ellipse_72" data-name="Ellipse 72" cx="75" cy="75" r="75" transform="translate(0.349)" fill="#baff29"></circle><path id="Path_3144" data-name="Path 3144" d="M23.914,27.39v4.161A11.957,11.957,0,0,0,7.983,42.819H4A15.945,15.945,0,0,1,23.914,27.39ZM19.931,24.9A11.948,11.948,0,1,1,31.879,12.948,11.945,11.945,0,0,1,19.931,24.9Zm0-3.983a7.966,7.966,0,1,0-7.966-7.966A7.963,7.963,0,0,0,19.931,20.914ZM31.879,32.862V26.888h3.983v5.974h5.974v3.983H35.862v5.974H31.879V36.845H25.905V32.862Z" transform="translate(56.349 31.471)" fill="#193153"></path><path id="Path_3240" data-name="Path 3240" d="M1.368,0V-14.155h9.443v2.28H3.952v3.914h6v2.28h-6V0ZM14.25.228a4.531,4.531,0,0,1-1.881-.361,2.808,2.808,0,0,1-1.235-1.036A2.818,2.818,0,0,1,10.7-2.736a3.062,3.062,0,0,1,.38-1.53A3.031,3.031,0,0,1,12.255-5.4a5.887,5.887,0,0,1,2.014-.646l3.382-.551v1.9L14.744-4.2a2.121,2.121,0,0,0-1.1.475,1.174,1.174,0,0,0-.361.893,1.01,1.01,0,0,0,.409.845,1.62,1.62,0,0,0,1.016.314A2.789,2.789,0,0,0,16.083-2a2.369,2.369,0,0,0,.931-.921,2.583,2.583,0,0,0,.333-1.292v-2.66a1.4,1.4,0,0,0-.522-1.112,2.047,2.047,0,0,0-1.378-.446,2.426,2.426,0,0,0-1.416.427,2.477,2.477,0,0,0-.9,1.131L11.1-7.866a3.587,3.587,0,0,1,.959-1.415,4.833,4.833,0,0,1,1.549-.941,5.374,5.374,0,0,1,1.938-.342,5.12,5.12,0,0,1,2.242.466,3.645,3.645,0,0,1,1.51,1.292,3.439,3.439,0,0,1,.541,1.928V0H17.48V-1.767l.532-.038a4.181,4.181,0,0,1-.95,1.111,4.012,4.012,0,0,1-1.254.684A4.845,4.845,0,0,1,14.25.228ZM21.375,0V-10.336h2.337v2.394l-.266-.4a2.681,2.681,0,0,1,1.14-1.672,3.636,3.636,0,0,1,2.014-.551,3.866,3.866,0,0,1,2.242.665A2.994,2.994,0,0,1,30.1-8.151l-.7.057a3.715,3.715,0,0,1,1.425-1.853A3.919,3.919,0,0,1,33-10.564a3.892,3.892,0,0,1,1.966.494,3.55,3.55,0,0,1,1.359,1.377,4.115,4.115,0,0,1,.494,2.043V0H34.333V-6.061a2.607,2.607,0,0,0-.247-1.178,1.881,1.881,0,0,0-.684-.769,1.956,1.956,0,0,0-1.064-.275,1.981,1.981,0,0,0-1.045.275,1.838,1.838,0,0,0-.7.769,2.607,2.607,0,0,0-.247,1.178V0H27.854V-6.061a2.607,2.607,0,0,0-.247-1.178,1.858,1.858,0,0,0-.693-.769,1.968,1.968,0,0,0-1.055-.275,1.981,1.981,0,0,0-1.045.275,1.838,1.838,0,0,0-.7.769,2.607,2.607,0,0,0-.247,1.178V0Zm16.8,0V-10.336H40.66V0Zm0-11.5v-2.66H40.66v2.66ZM42.2,0V-14.383h2.489V0Zm5.282,4.2a4.962,4.962,0,0,1-.817-.066,2.75,2.75,0,0,1-.722-.219V1.824q.247.057.6.114a4.11,4.11,0,0,0,.655.057,1.678,1.678,0,0,0,1.245-.4A3.8,3.8,0,0,0,49.134.551l.684-1.6-.038,2.09-4.5-11.381h2.679l3.154,8.4h-.95l3.135-8.4h2.7L51.49,1.045a6.491,6.491,0,0,1-.969,1.71A3.939,3.939,0,0,1,49.2,3.829,3.835,3.835,0,0,1,47.481,4.2ZM56.81,0V-14.155h5.282a5.942,5.942,0,0,1,2.555.523,4.026,4.026,0,0,1,1.739,1.52,4.462,4.462,0,0,1,.627,2.423,4.375,4.375,0,0,1-.636,2.4,4.162,4.162,0,0,1-1.739,1.53,5.79,5.79,0,0,1-2.546.532h-2.7V0Zm2.584-7.505H62.13a2.535,2.535,0,0,0,1.216-.275,1.987,1.987,0,0,0,.8-.77,2.24,2.24,0,0,0,.285-1.14,2.227,2.227,0,0,0-.285-1.15,2.006,2.006,0,0,0-.8-.76,2.535,2.535,0,0,0-1.216-.276H59.394ZM70.68.228A4.531,4.531,0,0,1,68.8-.133a2.808,2.808,0,0,1-1.235-1.036,2.818,2.818,0,0,1-.437-1.567,3.062,3.062,0,0,1,.38-1.53A3.031,3.031,0,0,1,68.685-5.4,5.887,5.887,0,0,1,70.7-6.042l3.382-.551v1.9L71.174-4.2a2.121,2.121,0,0,0-1.1.475,1.174,1.174,0,0,0-.361.893,1.01,1.01,0,0,0,.409.845,1.62,1.62,0,0,0,1.017.314A2.789,2.789,0,0,0,72.514-2a2.369,2.369,0,0,0,.931-.921,2.583,2.583,0,0,0,.332-1.292v-2.66a1.4,1.4,0,0,0-.522-1.112,2.047,2.047,0,0,0-1.378-.446,2.426,2.426,0,0,0-1.415.427,2.477,2.477,0,0,0-.9,1.131l-2.033-.988a3.587,3.587,0,0,1,.96-1.415,4.833,4.833,0,0,1,1.549-.941,5.374,5.374,0,0,1,1.938-.342,5.12,5.12,0,0,1,2.242.466,3.645,3.645,0,0,1,1.51,1.292,3.439,3.439,0,0,1,.541,1.928V0H73.91V-1.767l.532-.038a4.181,4.181,0,0,1-.95,1.111,4.012,4.012,0,0,1-1.254.684A4.845,4.845,0,0,1,70.68.228Zm11.058,0A5.2,5.2,0,0,1,78.86-.561,4.006,4.006,0,0,1,77.178-2.7l1.862-.893a3.275,3.275,0,0,0,1.112,1.368,2.721,2.721,0,0,0,1.587.494,1.746,1.746,0,0,0,1.083-.3.956.956,0,0,0,.4-.8.774.774,0,0,0-.161-.5,1.348,1.348,0,0,0-.437-.342,3.368,3.368,0,0,0-.6-.238l-1.691-.475a4.033,4.033,0,0,1-1.985-1.159,2.724,2.724,0,0,1-.674-1.843,2.885,2.885,0,0,1,.484-1.663,3.217,3.217,0,0,1,1.349-1.112,4.69,4.69,0,0,1,1.986-.4,4.761,4.761,0,0,1,2.584.7,3.855,3.855,0,0,1,1.6,1.976l-1.9.893a2.29,2.29,0,0,0-.893-1.121,2.478,2.478,0,0,0-1.406-.418,1.554,1.554,0,0,0-.988.285.9.9,0,0,0-.361.741.817.817,0,0,0,.152.494,1.113,1.113,0,0,0,.428.342,4.783,4.783,0,0,0,.636.247l1.653.494a4.229,4.229,0,0,1,1.966,1.14,2.661,2.661,0,0,1,.694,1.862,2.813,2.813,0,0,1-.494,1.643A3.275,3.275,0,0,1,83.79-.171,4.9,4.9,0,0,1,81.738.228Zm9.006,0a5.2,5.2,0,0,1-2.879-.789A4.006,4.006,0,0,1,86.184-2.7l1.862-.893a3.275,3.275,0,0,0,1.112,1.368,2.721,2.721,0,0,0,1.587.494,1.746,1.746,0,0,0,1.083-.3.956.956,0,0,0,.4-.8.774.774,0,0,0-.161-.5,1.348,1.348,0,0,0-.437-.342,3.368,3.368,0,0,0-.6-.238l-1.691-.475a4.033,4.033,0,0,1-1.985-1.159,2.724,2.724,0,0,1-.674-1.843,2.885,2.885,0,0,1,.484-1.663,3.217,3.217,0,0,1,1.349-1.112,4.69,4.69,0,0,1,1.986-.4,4.761,4.761,0,0,1,2.584.7,3.855,3.855,0,0,1,1.6,1.976l-1.9.893a2.29,2.29,0,0,0-.893-1.121,2.478,2.478,0,0,0-1.406-.418,1.554,1.554,0,0,0-.988.285.9.9,0,0,0-.361.741.817.817,0,0,0,.152.494,1.113,1.113,0,0,0,.428.342,4.783,4.783,0,0,0,.636.247L92-5.928a4.229,4.229,0,0,1,1.966,1.14,2.661,2.661,0,0,1,.694,1.862,2.813,2.813,0,0,1-.494,1.643A3.275,3.275,0,0,1,92.8-.171,4.9,4.9,0,0,1,90.744.228ZM96.686-9.3v-3.9H95.478v-1.053H99.1V-13.2h-1.2v3.9Zm2.793,0v-4.954h1.186l1.862,2.372h-.554l1.784-2.372h1.2V-9.3h-1.208V-12.96l.5.1-1.939,2.394h-.177l-1.851-2.394.421-.1V-9.3Z" transform="translate(27.349 102)" fill="#193153"></path></g></g></svg> 