<?xml version="1.0" encoding="UTF-8"?> <svg xmlns="http://www.w3.org/2000/svg" width="128.635" height="128.625" viewBox="0 0 128.635 128.625"><path id="AQUASONIC_ICON_-_Teal" data-name="AQUASONIC ICON - Teal" d="M64.316,0a64.313,64.313,0,1,0,64.319,64.313A64.39,64.39,0,0,0,64.316,0m53.353,64.313a53.547,53.547,0,1,1-13.443-35.279,238.107,238.107,0,0,0-26.06,20.109L70.635,31.4H58.163L32.536,91.766H49.017S54.763,81.29,68.86,68.116l-3.051-7.178c-6.076,6.223-11.043,11.975-14.927,16.8L64.4,45.886l19.474,45.88H96.259L81.668,57.394a182.238,182.238,0,0,1,29.764-18.045,52.949,52.949,0,0,1,6.236,24.964" fill="#34f6f2"></path></svg> 