<?xml version="1.0" encoding="UTF-8"?> <svg xmlns="http://www.w3.org/2000/svg" width="127.083" height="132.941" viewBox="0 0 127.083 132.941"><g transform="translate(-252.5 -9430.93)"><path d="M15.846-5.5A21.346,21.346,0,1,1-5.5,15.846,21.371,21.371,0,0,1,15.846-5.5Zm0,31.693A10.346,10.346,0,1,0,5.5,15.846,10.358,10.358,0,0,0,15.846,26.193Z" transform="translate(303.428 9485.899)" fill="#34f6f2"></path><path d="M14.41-5.5A19.91,19.91,0,1,1-5.5,14.41,19.932,19.932,0,0,1,14.41-5.5Zm0,28.819A8.91,8.91,0,1,0,5.5,14.41,8.92,8.92,0,0,0,14.41,23.319Z" transform="translate(333.049 9436.43)" fill="#34f6f2"></path><path d="M23.64,11.949A16.079,16.079,0,1,1,7.563,28.028,16.1,16.1,0,0,1,23.64,11.949Zm0,21.158a5.079,5.079,0,1,0-5.077-5.079A5.085,5.085,0,0,0,23.64,33.107Z" transform="translate(258.679 9449.336)" fill="#34f6f2"></path><path d="M10.942-5.5A16.442,16.442,0,1,1-5.5,10.942,16.461,16.461,0,0,1,10.942-5.5Zm0,21.885A5.442,5.442,0,1,0,5.5,10.942,5.449,5.449,0,0,0,10.942,16.385Z" transform="translate(325.002 9536.485)" fill="#34f6f2"></path><path d="M9.486-5.5A14.986,14.986,0,1,1-5.5,9.486,15,15,0,0,1,9.486-5.5Zm0,18.971A3.986,3.986,0,1,0,5.5,9.486,3.99,3.99,0,0,0,9.486,13.471Z" transform="translate(355.111 9500.249)" fill="#34f6f2"></path><path d="M17.449-5.5A22.949,22.949,0,1,1-5.5,17.449,22.975,22.975,0,0,1,17.449-5.5Zm0,34.9A11.949,11.949,0,1,0,5.5,17.449,11.963,11.963,0,0,0,17.449,29.4Z" transform="translate(258 9515.78)" fill="#34f6f2"></path><path d="M12.11,14.722-3.059,4.571,3.059-4.571,18.228,5.581Z" transform="translate(290.935 9482.78)" fill="#34f6f2"></path><path d="M4.812,27.259l-9.624-5.328L8.8-2.664l9.624,5.328Z" transform="translate(326.862 9463.447)" fill="#34f6f2"></path><path d="M19.856,9.084-.955,5.417.955-5.417,21.765-1.749Z" transform="translate(334.449 9504.422)" fill="#34f6f2"></path><path d="M2.325,22.413-5.167,1.886,5.167-1.886l7.491,20.528Z" transform="translate(324.706 9516.63)" fill="#34f6f2"></path><path d="M3.184,16.158l-6.368-8.97L13.26-4.485l6.368,8.97Z" transform="translate(289.912 9510.918)" fill="#34f6f2"></path></g></svg> 