<?xml version="1.0" encoding="UTF-8"?> <svg xmlns="http://www.w3.org/2000/svg" width="82" height="82" viewBox="0 0 82 82"><g id="thumbs-up-icon" transform="translate(-796 -1038)"><circle id="Ellipse_61" data-name="Ellipse 61" cx="41" cy="41" r="41" transform="translate(796 1038)" fill="#34f6f2"></circle><path id="Path_2220" data-name="Path 2220" d="M2.545,13.276H7.182V31.822H2.545A1.545,1.545,0,0,1,1,30.276V14.822A1.545,1.545,0,0,1,2.545,13.276Zm8.18-2,9.892-9.892a.773.773,0,0,1,1.01-.072l1.318.988A2.318,2.318,0,0,1,23.8,4.729l-1.782,7h9.891A3.091,3.091,0,0,1,35,14.822v3.252a3.092,3.092,0,0,1-.233,1.177L29.985,30.865a1.546,1.546,0,0,1-1.429.957H11.818a1.545,1.545,0,0,1-1.545-1.545V12.371A1.546,1.546,0,0,1,10.725,11.278Z" transform="translate(822 1060.51)" fill="#193153"></path></g></svg> 