<?xml version="1.0" encoding="UTF-8"?> <svg xmlns="http://www.w3.org/2000/svg" width="70" height="70" viewBox="0 0 70 70"><path id="Icon-schedule" d="M18.667,7.667V1h6.667V7.667h20V1H52V7.667H65.333A3.333,3.333,0,0,1,68.667,11V27.667H62V14.333H52V21H45.333V14.333h-20V21H18.667V14.333h-10V61h20v6.667H5.333A3.333,3.333,0,0,1,2,64.333V11A3.333,3.333,0,0,1,5.333,7.667ZM52,37.667A13.333,13.333,0,1,0,65.333,51,13.333,13.333,0,0,0,52,37.667ZM32,51A20,20,0,1,1,52,71,20,20,0,0,1,32,51ZM48.667,41V52.381l7.643,7.643,4.714-4.714-5.69-5.69V41Z" transform="translate(-2 -1)" fill="#34f6f2"></path></svg> 