<?xml version="1.0" encoding="UTF-8"?> <svg xmlns="http://www.w3.org/2000/svg" width="70" height="70" viewBox="0 0 70 70"><path id="Icon-aquavalet-lime" d="M31.75,54.5H9v-7H31.75A12.25,12.25,0,1,1,20.277,64.053l6.556-2.459A5.251,5.251,0,1,0,31.75,54.5ZM12.5,33.5H59.75A12.25,12.25,0,1,1,48.277,50.053l6.556-2.459A5.251,5.251,0,1,0,59.75,40.5H12.5a10.5,10.5,0,1,1,0-21H42.25a5.25,5.25,0,1,0-4.917-7.094L30.777,9.948A12.251,12.251,0,1,1,42.25,26.5H12.5a3.5,3.5,0,0,0,0,7Z" transform="translate(-2 -2)" fill="#baff29"></path></svg> 