<?xml version="1.0" encoding="UTF-8"?> <svg xmlns="http://www.w3.org/2000/svg" width="66.316" height="70" viewBox="0 0 66.316 70"><path id="Icon-leaf" d="M69.314,3v7.368c0,35.469-19.793,51.579-44.21,51.579H11.261A63.144,63.144,0,0,0,10.366,73H3A68.941,68.941,0,0,1,4.272,59.251,116.089,116.089,0,0,1,3,39.842,36.842,36.842,0,0,1,39.84,3C47.208,3,54.577,6.684,69.314,3ZM39.84,10.368A29.474,29.474,0,0,0,10.366,39.842q0,2,.035,3.853c4.621-7.286,11.389-13.046,20.242-18.1l3.656,6.4C23.782,38,16.8,44.829,13.223,54.578H25.1c22.161,0,36.367-14.638,36.83-42.782a61,61,0,0,1-15.546-.691A40.287,40.287,0,0,0,39.84,10.368Z" transform="translate(-2.998 -3)" fill="#34f6f2"></path></svg> 