<?xml version="1.0" encoding="UTF-8"?> <svg xmlns="http://www.w3.org/2000/svg" width="78.924" height="70" viewBox="0 0 78.924 70"><path id="icon-integrity" d="M61.187,54.5V72h-7V54.5A38.507,38.507,0,0,1,76.752,19.442l2.9,6.374A31.506,31.506,0,0,0,61.187,54.5Zm-35,0V72h-7V54.5A31.506,31.506,0,0,0,.726,25.816l2.9-6.374A38.507,38.507,0,0,1,26.188,54.5Zm14-17.5a17.5,17.5,0,1,1,17.5-17.5A17.5,17.5,0,0,1,40.187,37Zm0-7a10.5,10.5,0,1,0-10.5-10.5A10.5,10.5,0,0,0,40.187,30Z" transform="translate(-0.726 -2)" fill="#34f6f2"></path></svg> 