<?xml version="1.0" encoding="UTF-8"?> <svg xmlns="http://www.w3.org/2000/svg" width="70" height="70" viewBox="0 0 70 70"><path id="Icon-globe" d="M16.823,17.587a28.008,28.008,0,0,0,30.86,45.3,12.09,12.09,0,0,0-.842-6.029c-.8-1.959-3.456-5.307-7.884-9.953-1.182-1.243-1.106-2.2-.684-5.028l.049-.32c.287-1.94.769-3.087,7.3-4.123,3.316-.526,4.188.8,5.4,2.635.134.2.267.4.4.6A6.436,6.436,0,0,0,54.7,43.322c.576.261,1.294.59,2.257,1.137,2.282,1.3,2.282,2.777,2.282,6.005v.366a18.289,18.289,0,0,1-.345,3.619A28.009,28.009,0,0,0,48.032,11.257c-1.936,1.307-4.592,3.159-5.519,4.428-.474.649-1.144,3.961-3.323,4.234a12.706,12.706,0,0,1-2.148-.031c-2.175-.141-5.151-.332-6.1,2.254-.6,1.639-.711,6.088,1.246,8.4a2.053,2.053,0,0,1,.161,1.817A3.568,3.568,0,0,1,31.324,34.1a9.674,9.674,0,0,1-1.466-1.507c-1.1-1.276-2.469-2.866-4.24-3.358-.644-.178-1.352-.326-2.039-.47-1.922-.4-4.1-.861-4.6-1.94a7.579,7.579,0,0,1-.366-3.029,11.157,11.157,0,0,0-.714-4.708A4.466,4.466,0,0,0,16.823,17.587ZM37,72A35,35,0,1,1,72,37,35,35,0,0,1,37,72Z" transform="translate(-2 -2)" fill="#34f6f2"></path></svg> 