<?xml version="1.0" encoding="UTF-8"?> <svg xmlns="http://www.w3.org/2000/svg" width="63.941" height="70" viewBox="0 0 63.941 70"><path id="Icon-wellness" d="M31,2A28.006,28.006,0,0,1,58.768,26.377l7.877,12.386a1.69,1.69,0,0,1-.787,2.548L59,44.248V54.5a7,7,0,0,1-7,7H45L45,72H13.5V59.071A18.329,18.329,0,0,0,9.144,47.5,28,28,0,0,1,31,2Zm0,7A21,21,0,0,0,14.605,43.125a25.277,25.277,0,0,1,5.9,15.947V65H38l0-10.5H52V39.632l5.424-2.323-5.4-8.489-.2-1.545A21,21,0,0,0,31,9ZM29.144,22.169,31,24.025l1.856-1.856a6.125,6.125,0,0,1,8.662,8.662L31,41.349,20.482,30.831a6.125,6.125,0,0,1,8.662-8.662Z" transform="translate(-3 -2)" fill="#34f6f2"></path></svg> 