<?xml version="1.0" encoding="UTF-8"?> <svg xmlns="http://www.w3.org/2000/svg" width="81.667" height="70" viewBox="0 0 81.667 70"><path id="Icon-salary" d="M79.783,18.555h3.889V57.444H79.783V69.111A3.889,3.889,0,0,1,75.894,73h-70A3.889,3.889,0,0,1,2,69.111V6.889A3.889,3.889,0,0,1,5.894,3h70a3.889,3.889,0,0,1,3.889,3.889ZM72,57.444H48.672a19.444,19.444,0,1,1,0-38.889H72V10.778H9.783V65.222H72Zm3.889-7.778V26.333H48.672a11.667,11.667,0,0,0,0,23.333ZM48.672,34.111H60.338v7.778H48.672Z" transform="translate(-2.005 -3)" fill="#34f6f2"></path></svg> 