<?xml version="1.0" encoding="UTF-8"?> <svg xmlns="http://www.w3.org/2000/svg" width="88" height="70" viewBox="0 0 88 70"><g id="Icon-infinity-lime" transform="translate(-131 -658)"><rect id="Rectangle_1" data-name="Rectangle 1" width="88" height="70" transform="translate(131 658)" fill="#fff" opacity="0"></rect><path id="Icon-infinity-lime-2" data-name="Icon-infinity-lime" d="M9,28.5a14,14,0,0,1,14-14,14.307,14.307,0,0,1,10.8,4.453C36.7,21.859,38.94,25.829,41.5,30.442l.135.242c2.4,4.328,5.134,9.244,8.908,13.019A22.284,22.284,0,0,0,67,50.5,22,22,0,1,0,50.369,14.1c1.786,2.619,3.26,5.226,4.487,7.432A14,14,0,1,1,67,42.5a14.305,14.305,0,0,1-10.8-4.454C53.3,35.141,51.06,31.171,48.5,26.558l-.135-.242c-2.4-4.328-5.134-9.245-8.908-13.019A22.284,22.284,0,0,0,23,6.5,22,22,0,1,0,39.631,42.9c-1.786-2.619-3.26-5.226-4.487-7.432A14,14,0,0,1,9,28.5Z" transform="translate(130 664.5)" fill="#baff29"></path></g></svg> 