<?xml version="1.0" encoding="UTF-8"?> <svg xmlns="http://www.w3.org/2000/svg" width="78.715" height="70" viewBox="0 0 78.715 70"><path id="icon-responsible" d="M8.232,9.54a23.815,23.815,0,0,1,32.385-1.2A23.813,23.813,0,0,1,74.242,41.875L45.8,70.419a7.328,7.328,0,0,1-9.961.372l-.4-.372L6.988,41.875A23.816,23.816,0,0,1,8.232,9.54Zm5.181,5.181a16.487,16.487,0,0,0-.536,22.754l.536.561,27.2,27.2L60.042,45.805,47.091,32.855l-3.886,3.886A10.991,10.991,0,0,1,27.662,21.2l7.7-7.7a16.49,16.49,0,0,0-21.385.69ZM44.5,25.083a3.664,3.664,0,0,1,5.181,0L65.223,40.624l2.593-2.588A16.487,16.487,0,0,0,45.062,14.185l-.562.536L32.843,26.379a3.664,3.664,0,0,0-.285,4.862l.285.32a3.664,3.664,0,0,0,4.862.285l.32-.285Z" transform="translate(-1.257 -2.565)" fill="#34f6f2"></path></svg> 