<?xml version="1.0" encoding="UTF-8"?> <svg xmlns="http://www.w3.org/2000/svg" width="57.091" height="70" viewBox="0 0 57.091 70"><path id="Icon-chemistry" d="M46.389,2V9h-3.5V20.35a28,28,0,0,0,2.577,11.734L60.45,64.55A5.25,5.25,0,0,1,55.683,72H9.094a5.25,5.25,0,0,1-4.767-7.45L19.311,32.084A28,28,0,0,0,21.888,20.35V9h-3.5V2ZM37.246,30H27.531a35.073,35.073,0,0,1-1.31,3.749l-.553,1.264L11.826,65H52.948L39.11,35.017A34.965,34.965,0,0,1,37.246,30ZM28.889,20.35q0,1.33-.1,2.653h7.2q-.049-.636-.074-1.273l-.027-1.379V9h-7Z" transform="translate(-3.844 -2)" fill="#34f6f2"></path></svg> 