<?xml version="1.0" encoding="UTF-8"?> <svg xmlns="http://www.w3.org/2000/svg" width="53.333" height="70" viewBox="0 0 53.333 70"><path id="icon-smart" d="M23.91,55.333h3.423V38.667H34V55.333h3.423c.44-4.005,2.484-7.312,5.8-10.925C43.6,44,46,41.521,46.28,41.167a20,20,0,1,0-31.232-.006c.285.355,2.687,2.843,3.056,3.245C21.426,48.021,23.47,51.328,23.91,55.333ZM24,62v3.333H37.333V62ZM9.846,45.331a26.667,26.667,0,1,1,41.635.007C49.413,47.916,44,52,44,57v8.333A6.667,6.667,0,0,1,37.333,72H24a6.667,6.667,0,0,1-6.667-6.667V57C17.333,52,11.915,47.912,9.846,45.331Z" transform="translate(-4 -2)" fill="#34f6f2"></path></svg> 