<?xml version="1.0" encoding="UTF-8"?> <svg xmlns="http://www.w3.org/2000/svg" width="57.273" height="70" viewBox="0 0 57.273 70"><path id="Icon-safety" d="M31.636,1,57.781,6.81a3.182,3.182,0,0,1,2.492,3.106V41.692a19.091,19.091,0,0,1-8.5,15.885L31.636,71,11.5,57.577A19.091,19.091,0,0,1,3,41.692V9.916A3.182,3.182,0,0,1,5.492,6.81Zm0,6.519L9.364,12.468V41.692a12.727,12.727,0,0,0,5.667,10.59l16.605,11.07,16.605-11.07a12.727,12.727,0,0,0,5.667-10.59V12.468ZM45.8,23.979l4.5,4.5L30.054,48.727l-13.5-13.5,4.5-4.5,9,9Z" transform="translate(-3 -1)" fill="#34f6f2"></path></svg> 