<?xml version="1.0" encoding="UTF-8"?> <svg xmlns="http://www.w3.org/2000/svg" width="75.636" height="70" viewBox="0 0 75.636 70"><path id="Icon-thumbs_up" d="M47.756,25.946h22a6.876,6.876,0,0,1,6.876,6.876v7.235a6.881,6.881,0,0,1-.518,2.618L65.48,68.511A3.438,3.438,0,0,1,62.3,70.64H4.438A3.438,3.438,0,0,1,1,67.2V32.822a3.438,3.438,0,0,1,3.438-3.438H16.409a3.438,3.438,0,0,0,2.809-1.455L37.966,1.367A1.719,1.719,0,0,1,40.139.821L46.376,3.94a8.6,8.6,0,0,1,4.486,9.808Zm-26.128,8.9V63.764H60L69.76,40.057V32.822h-22a6.876,6.876,0,0,1-6.664-8.572l3.106-12.2a1.719,1.719,0,0,0-.9-1.962L41.028,8.953,24.835,31.894A10.308,10.308,0,0,1,21.628,34.841ZM14.752,36.26H7.876v27.5h6.876Z" transform="translate(-1 -0.64)" fill="#34f6f2"></path></svg> 